<?xml version="1.0" encoding="UTF-8"?>
<svg width="480px" height="378px" viewBox="0 0 480 378" version="1.1" xmlns="http://www.w3.org/2000/svg" xmlns:xlink="http://www.w3.org/1999/xlink">
    <!-- Generator: Sketch 52.5 (67469) - http://www.bohemiancoding.com/sketch -->
    <title>Artboard</title>
    <desc>Created with Sketch.</desc>
    <defs>
        <rect id="path-1" x="0" y="0" width="480" height="378"></rect>
    </defs>
    <g id="Page-1" stroke="none" stroke-width="1" fill="none" fill-rule="evenodd">
        <g id="Artboard">
            <g id="Group">
                <mask id="mask-2" fill="white">
                    <use xlink:href="#path-1"></use>
                </mask>
                <use id="Rectangle" fill="#FFFFFF" fill-rule="nonzero" xlink:href="#path-1"></use>
                <text id="Bunshin" mask="url(#mask-2)" font-family="NotoSansCJKjp-Regular, Noto Sans CJK JP" font-size="59.3623188" font-weight="normal" fill="#000000">
                    <tspan x="199.766261" y="145.157248">Bunshin</tspan>
                </text>
                <text id="Jutsu" mask="url(#mask-2)" font-family="NotoSansCJKjp-Regular, Noto Sans CJK JP" font-size="59.3623188" font-weight="normal" fill="#000000">
                    <tspan x="273.470145" y="265.894349">Jutsu</tspan>
                </text>
                <text id="no" mask="url(#mask-2)" font-family="NotoSansCJKjp-Regular, Noto Sans CJK JP" font-size="59.3623188" font-weight="normal" fill="#000000">
                    <tspan x="313.791072" y="202.739558">no</tspan>
                </text>
                <g id="Ninja/Covered" mask="url(#mask-2)">
                    <g transform="translate(28.753623, 31.809582)">
                        <g id="Ninja" fill="none">
                            <g id="Ninja/Hip" transform="translate(40.278261, 142.852063)" fill="#000000" fill-rule="nonzero" stroke="#FFFFFF" stroke-width="1.66956522">
                                <path d="M31.6173913,-0.834782609 C51.3142893,-0.834782609 60.2834781,-0.397337581 61.6803657,0.953504872 C62.1552281,1.41271452 62.2896331,1.56023621 62.5428663,1.97213642 C63.3540014,3.29150017 63.8360111,5.67660936 64.0312205,10.081994 C64.3424197,17.1049713 62.6866702,27.478889 60.8925669,29.697498 C58.92794,32.1269785 49.3721477,33.1826087 31.6173913,33.1826087 C13.8626349,33.1826087 4.3068426,32.1269785 2.34221569,29.697498 C0.548112367,27.478889 -1.10763706,17.1049713 -0.796437933,10.081994 C-0.601228444,5.67660936 -0.119218752,3.29150017 0.691916335,1.97213642 C0.94514954,1.56023621 1.07955454,1.41271452 1.55441693,0.953504872 C2.95130454,-0.397337581 11.9204933,-0.834782609 31.6173913,-0.834782609 Z" id="Path"></path>
                            </g>
                            <g id="Ninja/Body" transform="translate(36.521739, 60.016011)" fill="#000000" fill-rule="nonzero" stroke="#FFFFFF" stroke-width="1.66956522">
                                <path d="M69.4537903,8.09649823 C71.5315091,9.64899961 71.2090361,19.4713782 69.3259181,39.2024968 C69.143042,41.1186533 68.9450092,43.1268582 68.7199693,45.3568274 C68.5928314,46.616664 67.5033397,57.2041452 67.2521577,59.7764194 C66.8048339,64.3573176 66.5888011,67.1321048 66.5888011,68.5264678 L66.5888011,83.1235351 C66.5888011,87.6460509 56.2942691,89.1091701 35.2319414,88.3002224 C14.1057309,89.1091701 3.81119888,87.6460509 3.81119888,83.1235351 L3.81119888,68.5264678 C3.81119888,65.3591899 3.92061679,66.3791191 1.49369763,45.321426 C1.21477432,42.9012871 0.980630149,40.8175047 0.765630489,38.8273917 C-0.287021187,29.083675 -0.834778143,21.9217024 -0.834782609,16.5357304 C-0.834786089,10.3943662 -0.0288430616,4.20244484 1.4265321,3.10377821 C4.55487986,0.742180059 11.0284263,-0.293214549 20.7329302,-0.548378537 C23.8085466,-0.629246815 26.4937192,-0.630493017 31.3215717,-0.585262185 C33.6939961,-0.563035589 34.2424663,-0.558613995 35.1981777,-0.55651975 C35.4542383,-0.557078723 35.6637893,-0.557693174 36.1356832,-0.559188811 C48.9275042,-0.599612957 55.5655795,0.28382112 63.6332069,4.44685533 C65.6339798,5.47928847 67.572945,6.69110357 69.4537903,8.09649823 Z" id="Path"></path>
                                <path d="M42.3639958,37.6954112 C42.5619105,37.9984921 42.7609253,38.2992564 42.9610538,38.5977682 C46.8774931,44.4395321 50.7940495,48.9221228 55.9940326,53.9711825 C56.413094,54.3780812 60.2740359,58.0592042 61.2350053,59.0219613 C62.9617483,60.7519163 64.1237084,62.1017289 64.9707177,63.4294318 C66.0484636,65.1188187 66.5888011,66.7613892 66.5888011,68.5264678 L66.5888011,83.1235351 C66.5888011,87.6460509 56.2942691,89.1091701 35.2319414,88.3002224 C14.1057309,89.1091701 3.81119888,87.6460509 3.81119888,83.1235351 L3.81119888,68.5264678 C3.81119888,65.3591899 3.92061679,66.3791191 1.49369763,45.321426 C1.21477432,42.9012871 0.980630149,40.8175047 0.765630489,38.8273917 C-0.287021187,29.083675 -0.834778143,21.9217024 -0.834782609,16.5357304 C-0.834786089,10.3943662 -0.0288430616,4.20244484 1.4265321,3.10377821 C4.9761996,0.424124655 10.6312503,-1.14195922 15.3353382,-0.714403887 C18.812981,-0.39832036 20.4388788,0.592117335 22.0741536,2.96243058 C22.2712883,3.24817529 23.2175014,4.69956779 23.5176169,5.1332336 C23.8662813,5.6370524 24.2045868,6.14475982 24.5363923,6.66151 C25.4000503,8.00656156 26.2145891,9.40263246 27.1181632,11.0664546 C27.6945145,12.1277357 31.270554,19.0301891 32.6307604,21.5238758 C35.3680746,26.5422345 38.4168529,31.650871 42.3639958,37.6954112 Z" id="Path-Copy-2"></path>
                                <path d="M70.9308904,8.23143859 C72.7425449,10.4098113 72.1868651,20.2686817 69.938043,39.1539883 C69.7390642,40.8249854 69.5257972,42.5744404 69.2861011,44.5076105 C69.2754154,44.5937913 67.7645264,56.6030387 67.427844,59.4329957 C66.8638049,64.173981 66.5888011,67.0794181 66.5888011,68.5264678 L66.5888011,83.1235351 C66.5888011,87.6460509 56.2942691,89.1091701 35.2319414,88.3002224 C14.1057309,89.1091701 3.81119888,87.6460509 3.81119888,83.1235351 L3.81119888,68.5264678 C3.81119888,65.2669766 5.35905128,62.1947563 9.60214765,56.3490439 C10.7587146,54.755642 15.7907827,48.041833 16.5411433,47.0291406 C19.9137611,42.4774297 22.9151016,38.2773554 26.1073091,33.5805252 C31.0127151,26.3629936 34.4972845,20.3820301 38.625298,12.5581605 C43.2525378,3.78810186 43.6655529,3.06268778 45.2572002,1.4415663 C46.2687832,0.41125079 47.31358,-0.141023285 48.4874946,-0.207365764 C57.4847855,-0.715837648 65.4082019,1.59083806 70.9308904,8.23143859 Z" id="Path-Copy"></path>
                            </g>
                            <g id="Ninja/Leg/Lower/Left" transform="translate(82.713043, 220.803092)" fill="#000000" fill-rule="nonzero" stroke="#FFFFFF" stroke-width="1.66956522">
                                <path d="M7.27632361,63.2220063 C7.01834731,59.5327734 6.72828918,55.7609858 6.34749,51.0627602 C4.37696889,26.7508573 4.35259244,26.418745 4.27700397,20.3100008 C4.05680143,2.51415058 5.33528788,0.413860095 14.8173445,0.413540068 C15.9483718,0.413578241 16.9380736,0.324654752 18.2238421,0.141040198 C20.6883106,-0.210898955 20.5570343,-0.195672917 21.2305774,-0.126371994 C22.2801096,-0.0183855168 23.0161965,0.519779907 23.4605748,1.55837358 C24.1674112,3.21038021 24.2768416,6.16193645 24.0741473,14.3957149 C23.9248938,20.4586354 23.7613844,25.9454672 23.5700094,31.4991194 C23.47376,34.2922525 23.375195,36.9767391 23.2459511,40.3697029 C23.2644423,39.8842665 23.0032777,46.6945591 22.9350432,48.5210855 C22.6971313,54.8895939 22.5399657,59.8064767 22.4094009,65.3275532 C22.4128659,65.1810307 22.3680204,67.0928753 22.3562492,67.5781708 C22.0640909,79.623075 21.3922179,80.963246 14.8172122,80.9640646 C15.1588845,80.9641072 11.7200759,81.0448204 11.0724239,80.9516592 C9.89409289,80.7821627 9.15562861,80.1864357 8.71729801,78.9936397 C8.35570387,78.0096608 8.15908497,76.582003 7.95898556,73.8166792 C7.89095097,72.8764583 7.46751474,65.9561669 7.27632361,63.2220063 Z" id="Path" transform="translate(14.212086, 40.433089) scale(-1, 1) rotate(4.000000) translate(-14.212086, -40.433089) "></path>
                            </g>
                            <g id="Ninja/Leg/Upper/Left" transform="translate(70.817391, 148.783879)" fill="#000000" fill-rule="nonzero" stroke="#FFFFFF" stroke-width="1.66956522">
                                <path d="M24.5484566,8.78080309 C27.7182777,10.6412368 35.0590162,13.8866502 34.5104122,13.5998881 C36.3038245,14.5373268 37.1495919,15.5420965 37.2638828,17.1765317 C37.4013172,19.1419356 37.4316782,59.1766504 37.3016232,64.0506363 C37.286012,64.6356857 37.2711124,65.2204318 37.2524345,65.9739259 C37.2546009,65.8865288 37.2176602,67.3845673 37.2076853,67.7811916 C36.7845633,84.6053554 35.5005319,86.2026438 20.6499642,86.6753222 C20.0564237,86.6563624 19.7741093,86.6472813 19.4452869,86.6364909 C4.58501768,86.148849 3.95452505,85.3714902 3.70793805,67.5847559 C3.70380321,67.2865029 3.69906131,66.9393359 3.68997431,66.2734382 C3.53430603,54.9098796 3.50272129,47.7979764 3.62034803,40.6588275 C3.7250247,34.305661 3.91007897,27.9877221 4.17895845,20.8453889 C4.25634387,18.7897749 4.68858437,8.13142017 4.75612183,6.02349694 C4.9002983,1.52358058 6.86851394,-0.291436378 10.2508224,0.527109808 C12.5272691,1.07802845 14.6013506,2.2848018 19.8865173,5.79997998 C20.0100404,5.88213177 20.0100404,5.88213177 20.1335134,5.96421958 C22.2009276,7.33849142 23.3440199,8.07389422 24.5484566,8.78080309 Z" id="Path" transform="translate(20.467586, 43.506302) scale(-1, 1) rotate(4.000000) translate(-20.467586, -43.506302) "></path>
                            </g>
                            <g id="Ninja/Leg/Lower/Right" transform="translate(33.321739, 218.081435)" fill="#000000" fill-rule="nonzero" stroke="#FFFFFF" stroke-width="1.66956522">
                                <path d="M6.27129362,67.6064955 C6.15849957,66.3218457 6.06989104,65.3175165 5.86115463,62.9552775 C5.85790453,62.9184966 5.85790453,62.9184966 5.85465443,62.8817155 C3.86915671,40.4120476 3.20153657,31.3169286 3.20153657,23.6796612 C3.20153657,6.59789489 4.75605141,3.79383237 13.741941,3.79352909 C15.5172109,3.79358901 17.0213035,3.17429934 18.6196008,2.00058819 C19.0260862,1.70208521 20.3712854,0.604581488 20.6536539,0.406403386 C21.5493259,-0.222216976 22.3210129,-0.379622042 22.9763957,0.333959651 C23.7859929,1.21545038 23.9714917,3.51711385 23.9714917,10.2653208 C23.9714917,13.7711496 23.8544325,17.9043345 23.6135342,23.5361465 C23.4719947,26.8451104 22.8435371,39.9624948 22.8275709,40.3065609 C22.7855563,41.2119565 22.7455865,42.0853668 22.7070432,42.9413662 C22.5784722,45.7967709 22.4386015,48.6056517 22.2436851,52.3207084 C21.5200589,66.1128356 21.5168701,66.1766943 21.3464536,71.0258495 C21.2888558,72.6647814 21.2425126,74.2447869 21.2072967,75.7910224 C21.0175904,84.1205229 20.9845309,84.471252 19.7656742,85.0506896 C19.1498246,85.3434609 19.0147367,85.319311 17.28367,84.8520832 C16.0071138,84.5075311 15.0254603,84.3438939 13.7418087,84.3440537 C8.44058598,84.3433936 7.33302618,82.3089618 6.74381884,73.9898417 C6.71367416,73.5642238 6.5790743,71.5890935 6.53916411,71.0251248 C6.45060092,69.7736434 6.36714353,68.6981626 6.27129362,67.6064955 Z" id="Path" transform="translate(13.586514, 42.546001) rotate(4.000000) translate(-13.586514, -42.546001) "></path>
                            </g>
                            <g id="Ninja/Leg/Upper/Right" transform="translate(31.373913, 149.063023)" fill="#000000" fill-rule="nonzero" stroke="#FFFFFF" stroke-width="1.66956522">
                                <path d="M20.4083563,5.35654859 C32.748998,8.61782104 40.145072,12.5225975 40.4986482,17.1050453 C40.9597547,23.0811168 40.7976421,53.4019407 40.0034936,63.1874253 C39.8939812,64.536836 39.7970402,65.8590062 39.6890201,67.4408366 C39.6579684,67.895553 39.4871962,70.453306 39.4397929,71.1340615 C38.4822513,84.885221 36.7225103,86.3609127 20.1637317,86.4855544 C10.9621268,86.1398795 7.48998683,85.4745767 5.53291425,83.2928363 C3.72451459,81.2768361 3.61412456,79.6735101 3.97849691,70.5729347 C4.11685551,67.1172859 4.175329,64.6165892 4.15452471,61.6977912 C4.11288208,55.8554192 4.23631296,47.7748813 4.49577151,37.5050175 C4.57896139,34.2122035 4.67465768,30.7494485 4.78698519,26.9178203 C4.73791897,28.591529 5.35113701,8.44746707 5.40432308,5.83493724 C5.48426333,1.90822768 6.23162328,0.290464567 8.33760468,0.53981452 C9.3986042,0.665437749 15.2711105,3.55432866 15.3035558,3.56842933 C16.9817027,4.2977483 18.6402299,4.88928424 20.4083563,5.35654859 Z" id="Path" transform="translate(22.269101, 43.502432) rotate(4.000000) translate(-22.269101, -43.502432) "></path>
                            </g>
                            <g id="Ninja/Foot/Right" transform="translate(35.130435, 291.915086)" fill="#000000" fill-rule="nonzero" stroke="#FFFFFF" stroke-width="1.66956522">
                                <path d="M-0.559019454,1.9896934 C-0.496685602,-1.58141056 15.6318934,-1.49270647 16.9409728,1.9876288 C17.0521745,2.28327103 17.1505814,2.57829361 17.2372066,2.87534134 C17.8079675,4.83254661 17.8578527,6.06009029 17.7508879,10.9125282 C17.7397338,11.4185316 17.7318001,11.8079076 17.7248857,12.2040334 C17.7097435,13.071528 17.6531108,13.6693044 17.3711671,16.2656369 C17.3257707,16.6836786 17.2922372,16.9988402 17.2607179,17.3066719 C17.1196881,18.6840365 17.0433592,19.7042519 17.028163,20.5748439 C16.9880016,22.8756893 13.7623484,24.3949982 9.82401671,24.698509 C5.74840398,25.0125994 2.54887637,23.8752917 2.59527593,21.2170625 C2.61851986,19.8854184 2.57470647,19.6283305 1.68724922,15.2100793 C1.50739749,14.3146783 1.37122883,13.5873867 1.25053558,12.8557577 C1.12578742,12.0995483 0.990062338,11.3388655 0.838074795,10.5361025 C0.65128401,9.54951681 -0.00843538175,6.2922694 -0.13096076,5.63748846 C-0.43705584,4.00170308 -0.574972497,2.90364262 -0.559019454,1.9896934 Z" id="Rectangle" transform="translate(8.620329, 12.045290) scale(1, -1) rotate(-1.000000) translate(-8.620329, -12.045290) "></path>
                            </g>
                            <g id="Ninja/Foot/Left" transform="translate(91.200000, 291.915086)" fill="#000000" fill-rule="nonzero" stroke="#FFFFFF" stroke-width="1.66956522">
                                <path d="M-0.609741735,1.9896934 C-0.547407883,-1.58141056 15.5811711,-1.49270647 16.8902505,1.9876288 C17.0014522,2.28327103 17.0998591,2.57829361 17.1864843,2.87534134 C17.7572453,4.83254661 17.8071304,6.06009029 17.7001656,10.9125282 C17.6890115,11.4185316 17.6810778,11.8079076 17.6741634,12.2040334 C17.6590212,13.071528 17.6023885,13.6693044 17.3204448,16.2656369 C17.2750484,16.6836786 17.2415149,16.9988402 17.2099957,17.3066719 C17.0689658,18.6840365 16.9926369,19.7042519 16.9774407,20.5748439 C16.9372793,22.8756893 13.7116261,24.3949982 9.77329443,24.698509 C5.6976817,25.0125994 2.49815408,23.8752917 2.54455365,21.2170625 C2.56779758,19.8854184 2.52398419,19.6283305 1.63652694,15.2100793 C1.45667521,14.3146783 1.32050655,13.5873867 1.1998133,12.8557577 C1.07506514,12.0995483 0.939340056,11.3388655 0.787352513,10.5361025 C0.600561729,9.54951681 -0.0591576632,6.2922694 -0.181683041,5.63748846 C-0.487778121,4.00170308 -0.625694778,2.90364262 -0.609741735,1.9896934 Z" id="Rectangle" transform="translate(8.569607, 12.045290) scale(-1, -1) rotate(-1.000000) translate(-8.569607, -12.045290) "></path>
                            </g>
                            <g id="Ninja/Face" transform="translate(43.478261, 0.000000)">
                                <g id="Group" stroke-width="1" fill-rule="evenodd" transform="translate(36.800000, 0.000000)" fill="#000000" stroke="#FFFFFF">
                                    <path d="M10.6398069,11.9056325 C6.91994056,17.2757157 2.46500663,20.6158311 0.23444816,19.0370538 C-1.98504487,17.4661087 -0.406695722,12.1023257 3.30928922,6.73784577 C7.02915556,1.36776254 11.4840895,-1.97235283 13.714648,-0.393575587 C15.934141,1.17736959 14.3557918,6.54115254 10.6398069,11.9056325 Z" id="Oval-Copy" stroke-width="1.66956522" fill-rule="nonzero"></path>
                                    <path d="M11.8460932,17.3333815 C5.61355159,19.1398987 0.0684006487,18.9015446 -0.679362456,16.2655285 C-1.42505003,13.6368291 3.14756699,10.4678248 9.37646023,8.66236514 C15.6090018,6.85584801 21.1541527,7.0942021 21.9019158,9.7302182 C22.6476034,12.3589176 18.0749864,15.5279219 11.8460932,17.3333815 Z" id="Oval-Copy-2" stroke-width="1.66956522" fill-rule="nonzero"></path>
                                </g>
                                <ellipse id="Oval" stroke="#FFFFFF" stroke-width="1.66956522" fill="#000000" fill-rule="nonzero" cx="25.9478261" cy="31.4434783" rx="26.7826087" ry="30.4695652"></ellipse>
                                <path d="M6.19130435,24.3211382 C14.9299343,23.2723955 21.5734125,22.7480241 26.1217391,22.7480241 C30.6700657,22.7480241 37.313544,23.2723955 46.0521739,24.3211382 L46.0521739,41.6598182 C36.8230691,40.621953 29.9837205,40.1030205 25.5341283,40.1030205 C21.0845361,40.1030205 14.6369281,40.621953 6.19130435,41.6598182 L6.19130435,24.3211382 Z" id="Rectangle" fill="#FFFFFF" fill-rule="nonzero"></path>
                                <g id="Group-4" stroke-width="1" fill-rule="evenodd" transform="translate(11.756522, 26.643478)">
                                    <ellipse id="Oval-Copy-4" fill="#000000" fill-rule="nonzero" cx="4.8" cy="5.70434783" rx="4.8" ry="5.70434783"></ellipse>
                                    <ellipse id="Oval-Copy-5" fill="#FFFFFF" fill-rule="nonzero" cx="4.83478261" cy="5.70434783" rx="2.46956522" ry="2.92173913"></ellipse>
                                </g>
                                <g id="Group-4-Copy" stroke-width="1" fill-rule="evenodd" transform="translate(30.886957, 26.643478)">
                                    <ellipse id="Oval-Copy-4" fill="#000000" fill-rule="nonzero" cx="4.8" cy="5.70434783" rx="4.8" ry="5.70434783"></ellipse>
                                    <ellipse id="Oval-Copy-5" fill="#FFFFFF" fill-rule="nonzero" cx="4.83478261" cy="5.70434783" rx="2.46956522" ry="2.92173913"></ellipse>
                                </g>
                            </g>
                            <g id="Ninja/Arm/Upper/Left" transform="translate(87.582609, 61.341946)" fill="#000000" fill-rule="nonzero" stroke="#FFFFFF" stroke-width="1.66956522">
                                <path d="M24.9981655,80.2363627 C20.5064833,80.2191021 18.1059994,78.3308475 15.9971978,72.6770586 C14.037543,67.4231388 12.0271685,57.7459677 11.3520604,50.7554503 C9.9443953,36.1795522 11.9981836,17.543742 16.5363848,9.39181422 C20.7069377,1.90028947 26.9370887,-1.15836665 30.7850691,3.40034269 C35.2666673,8.70970025 36.6819652,13.1816778 36.4185763,24.5495441 C36.3896665,25.7972924 36.3694286,26.4507166 36.261295,29.7747441 C36.2448343,30.2807458 36.2321382,30.675019 36.2200457,31.0573689 C36.0781581,35.5436555 36.0346935,38.1679013 36.1049336,39.8940716 C36.1841925,41.8418798 36.2352449,42.4777066 36.6823297,47.5445632 C37.1260951,52.5738009 37.3151735,55.7621501 37.3130074,59.6008305 C37.3055949,72.7363349 32.9391636,80.2668783 24.9981655,80.2363627 Z" id="Path" transform="translate(24.121171, 40.756594) scale(-1, 1) rotate(19.000000) translate(-24.121171, -40.756594) "></path>
                            </g>
                            <g id="Ninja/Arm/Upper/Right" transform="translate(0.000000, 57.503713)" fill="#000000" fill-rule="nonzero" stroke="#FFFFFF" stroke-width="1.66956522">
                                <path d="M28.4692155,72.9189778 C22.2093738,72.4252695 19.8505072,68.166089 16.926852,54.2994706 C16.0322386,50.0564042 15.6312074,34.9223493 15.7670216,24.6943287 C15.8774241,16.3800403 18.6299112,7.33349861 21.7031836,3.61255533 C25.5802151,-1.08153373 30.8046786,-0.151241531 35.2608954,5.06910561 C39.3486755,9.85783827 42.1135064,17.4453282 42.1135064,24.3802118 C42.1135064,31.725669 42.0941667,34.6280668 41.9909275,38.3470349 C41.8399298,43.7863983 41.5117093,48.8278352 40.9021633,54.6388969 C39.7493424,65.6292303 37.8749002,70.8851562 33.4862907,72.8007232 C32.6036798,73.1859705 31.6047269,73.2193714 29.9596921,73.0634546 C29.8099997,73.0492668 29.6719987,73.0354277 29.4372256,73.0113505 C28.8996055,72.9562147 28.7226705,72.9389676 28.4692155,72.9189778 Z" id="Path" transform="translate(28.931727, 36.863629) rotate(31.000000) translate(-28.931727, -36.863629) "></path>
                            </g>
                            <g id="Ninja/Arm/Lower/Left" transform="translate(69.773913, 104.469731)" fill="#000000" fill-rule="nonzero" stroke="#FFFFFF" stroke-width="1.66956522">
                                <path d="M21.338724,40.4395577 C21.3865054,39.8851554 21.4391869,39.2953223 21.5057776,38.5652401 C21.5427787,38.15957 21.6718535,36.755988 21.6836337,36.6274251 C21.7711458,35.6723696 21.8354411,34.9567389 21.8961115,34.2557358 C22.2647183,29.9967434 22.4185303,27.0638903 22.3422947,24.712443 C22.2413952,21.6002516 22.0807456,18.7231042 21.8258328,15.0723482 C21.7915121,14.5808211 21.75628,14.0852796 21.7103536,13.4458922 C21.7105673,13.4488671 21.6226155,12.2269412 21.5983691,11.8878604 C21.510301,10.6562464 21.45101,9.79104938 21.3993589,8.96509549 C21.2683993,6.87091668 21.2040615,5.25781245 21.2040615,3.80719734 C21.2040615,-2.30671779 22.5383113,-6.32385214 24.9379529,-8.6073254 C26.6570221,-10.2431733 28.5444744,-10.7767996 30.7571048,-10.7870276 C32.4250731,-10.7947378 34.7539605,-9.36135569 36.5825359,-7.0521733 C38.8501373,-4.188575 40.2592419,-0.235569278 40.4310095,4.6152262 C40.5101061,6.84895178 40.3392351,10.9518617 39.9333865,17.8957044 C39.9012518,18.4455104 39.8672336,19.0210002 39.8287135,19.6674159 C39.7897482,20.3213033 39.6589859,22.5012892 39.6490603,22.667252 C39.5798917,23.823796 39.5293279,24.6807156 39.4835271,25.4775132 C39.0515695,32.9922926 38.98576,35.6972536 39.1252466,42.0758339 C39.2812849,49.2113127 38.042771,50.3459532 30.7608851,50.3466367 C30.6634642,50.3466321 30.6634642,50.3466321 30.5667024,50.3466366 C25.9822038,50.3468509 24.557132,50.1723894 23.149441,49.0368514 C21.4417771,47.6593351 20.9368651,45.1022853 21.338724,40.4395577 Z" id="Path" transform="translate(30.826446, 19.779791) rotate(113.000000) translate(-30.826446, -19.779791) "></path>
                            </g>
                            <g id="Ninja/Arm/Lower/Right" transform="translate(6.330435, 85.697281)" fill="#000000" fill-rule="nonzero" stroke="#FFFFFF" stroke-width="1.66956522">
                                <path d="M25.6805558,42.7865913 C25.6290234,41.311139 25.5718858,39.9547668 25.4719438,37.7488163 C25.2090116,31.9452949 25.1413986,30.093464 25.1280119,27.2665122 C25.1117847,23.839718 24.9730766,20.6324361 24.671227,15.6276961 C24.2580762,8.77755582 24.2100626,7.84462632 24.2100626,5.60978046 C24.2100626,-9.79465402 25.3572524,-12.0569938 33.8177076,-12.0572354 C42.7633971,-12.0569799 44.3580597,-9.6230336 44.3580597,4.89791992 C44.3580597,7.45259899 44.3163548,8.12877901 43.726492,16.3785537 C43.4519513,20.2182577 43.2916347,22.9225817 43.1916877,25.7731066 C43.1392165,27.2696041 43.0994085,28.7082563 43.0631477,30.3519295 C43.0467418,31.0955946 43.0316477,31.8484892 43.0116867,32.8994727 C42.9160636,37.9342039 42.8950563,38.9381655 42.814428,41.8658883 C42.5014753,53.2296162 40.7354407,56.3570283 33.8175957,56.3577571 C26.8845775,56.3570267 26.1038905,54.9073031 25.6805558,42.7865913 Z" id="Path" transform="translate(34.284061, 22.150261) rotate(-114.000000) translate(-34.284061, -22.150261) "></path>
                            </g>
                            <g id="Ninja/Hand/Right" transform="translate(58.295652, 93.722678)" fill="#000000" fill-rule="nonzero" stroke="#FFFFFF" stroke-width="1.66956522">
                                <path d="M9.4997107,4.65919401 C13.5260568,2.23992118 24.8767012,2.92029793 26.9235037,5.10340044 C28.0847387,6.34196405 27.7270923,7.69236067 25.6024523,13.1900755 C25.5017842,13.4505642 25.421488,13.6592676 25.3447617,13.8601874 C24.7264921,15.4792244 24.3501648,16.5828379 24.1030862,17.5740537 C23.6302234,19.4710572 23.5087748,20.512 23.3952909,22.6241931 C23.306868,24.2699433 23.1535755,24.935728 22.4910369,25.7393999 C20.0276233,28.7275674 7.80250304,28.3556428 5.31073187,25.6979404 C4.05769765,24.3614645 3.44784389,20.0859498 3.87200239,15.8723622 C4.38634475,10.7628887 6.24615297,6.61412872 9.4997107,4.65919401 Z" id="Rectangle" transform="translate(15.614683, 15.478320) rotate(-59.000000) translate(-15.614683, -15.478320) "></path>
                            </g>
                            <g id="Ninja/Finger" transform="translate(68.173913, 63.156384)" fill="#000000" fill-rule="nonzero" stroke="#FFFFFF" stroke-width="1.66956522">
                                <path d="M-0.653889907,0.201326489 C-0.240913354,-1.03625206 1.08673492,-1.10971659 2.21571605,-0.337532217 C3.20715404,0.340577365 4.01144252,1.57845047 4.35148153,3.08492935 C4.70508784,4.65151562 4.9681025,7.2165123 5.10620067,11.1943351 C5.21083443,14.2082388 5.34032076,17.2977206 5.49466141,20.4627735 L5.53735145,21.3382151 L-0.739052939,21.3382151 L-0.695798808,20.4622615 C-0.572225951,17.9597471 -0.510336334,14.912417 -0.510336334,11.3215834 C-0.510336334,9.61426643 -0.562923732,8.02979518 -0.671486922,5.89022383 C-0.9050046,1.28804021 -0.911867362,0.974414846 -0.653889907,0.201326489 Z" id="Rectangle"></path>
                            </g>
                            <g id="Ninja/Hand/Left" transform="translate(52.243478, 79.276963)" fill="#000000" fill-rule="nonzero" stroke="#FFFFFF" stroke-width="1.66956522">
                                <path d="M6.43537985,3.42399027 C8.19805222,1.46258884 20.8188456,2.26725558 23.8662997,5.63462219 C26.610734,8.66715884 27.0723026,14.4309481 24.8035245,19.9917925 C24.7655196,20.0853081 24.7655196,20.0853081 24.7280535,20.1789277 C24.0313853,21.9263679 22.7661804,26.4041323 22.6657708,26.6125866 C21.9574926,28.0829998 18.8268167,28.4289557 14.2579799,28.1107186 C10.3774377,27.8404239 6.67055983,27.1122627 5.55336763,26.2970683 C5.00614199,25.8977679 4.91562171,25.3562496 5.04682097,24.5688642 C5.08626661,24.3321333 5.39724009,22.9487943 5.49269582,22.4444347 C5.84726942,20.5709734 6.01929418,18.519224 5.94530358,15.8847933 C5.89704597,14.1665839 5.76799658,12.6815835 5.54940756,10.9750296 C4.8800047,5.74891146 4.88010625,5.41131007 6.14081782,3.77686914 C6.23214166,3.65847296 6.33023016,3.54099486 6.43537985,3.42399027 Z" id="Rectangle" transform="translate(15.623819, 15.323940) rotate(51.000000) translate(-15.623819, -15.323940) "></path>
                            </g>
                        </g>
                        <path d="M14.8939682,123.165936 C14.6731724,122.941429 14.474219,122.687191 14.297108,122.403222 C13.8345313,121.661555 13.172691,120.405738 12.8773668,119.854248 C12.4124323,118.986026 12.2353193,118.485529 12.3460278,118.352756 L12.974579,113.0027 L22.4935944,90.5642468 L25.2851609,121.237605 L25.463779,126.401442 C24.1915073,126.470494 23.2992042,126.506067 22.7868699,126.50816 C21.3307177,126.51411 20.3285841,126.416168 19.8774541,126.341893 C19.188235,126.228419 18.7989864,126.119438 18.7097084,126.014951 L14.8939682,123.165936 Z" id="Rectangle" fill="#000000" fill-rule="nonzero" transform="translate(18.888935, 108.536333) rotate(36.000000) translate(-18.888935, -108.536333) "></path>
                        <path d="M44.9374772,62.1593504 C45.9068204,62.1118011 46.7457175,62.1035034 47.4541684,62.1344571 C49.3416299,62.2169244 50.9902399,62.3256235 52.3734303,62.6231317 C53.1361883,62.7871921 53.8144459,62.9910286 54.408203,63.2346412 L56.4737838,72.6356465 C54.4785996,76.5002165 52.8636397,79.3175184 51.6289043,81.0875522 C50.3941688,82.857586 48.6226737,84.8948783 46.314419,87.1994292 C40.5556563,91.1230641 37.1358122,93.05852 36.0548868,93.0057967 C34.9739614,92.9530735 34.3156409,92.9095176 34.0799252,92.8751291 L38.6590331,87.8802318 L49.235663,77.8629079 L44.9374772,62.1593504 Z" id="Rectangle" fill="#000000" fill-rule="nonzero" transform="translate(45.276855, 77.561497) rotate(-29.000000) translate(-45.276855, -77.561497) "></path>
                        <path d="M68.4893658,78.2402902 L72.5832996,77.6209989 C72.6404878,78.5847127 72.6749464,79.2625903 72.6866756,79.6546317 C72.7297884,81.0956501 72.7357815,81.9765471 72.8327522,82.2557799 C72.9692953,82.6489642 72.9490128,82.7958643 72.7719048,82.6964803 L68.3146967,82.5740479 C68.3887024,82.3789145 68.4257053,82.1059588 68.4257053,81.7551808 C68.4257053,80.8883496 68.4484037,80.5757617 68.4257053,79.7408749 C68.4255963,79.7368664 68.4468165,79.2366715 68.4893658,78.2402902 Z" id="Rectangle-Copy-13" fill="#000000" fill-rule="nonzero"></path>
                        <path d="M51.8698137,94.603149 L67.4475253,94.1802246 L65.5203824,104.459312 L49.6937514,105.195766 C49.8698516,104.423606 50.1094708,103.274125 50.4126088,101.747324 C50.7157468,100.220523 51.2014818,97.8391312 51.8698137,94.603149 Z" id="Rectangle-Copy-12" fill="#000000" fill-rule="nonzero" transform="translate(58.570638, 99.687995) rotate(55.000000) translate(-58.570638, -99.687995) "></path>
                        <path d="M98.3601814,62.6594754 C99.9770483,63.2692581 101.55914,64.1485408 103.106455,65.2973236 C104.143252,66.0670785 105.713021,67.4833342 107.365252,69.3128131 C107.907625,69.9133707 108.720708,70.903797 109.804501,72.2840919 L101.793877,114.570306 L101.78751,114.566337 C97.4454618,103.537834 94.6056204,95.8615505 93.2679856,91.5374859 C91.9303507,87.2134213 90.7845166,82.4474279 89.8304833,77.2395058 L90.3753508,66.9507603 L98.3601814,62.6594754 Z" id="Rectangle-Copy-7" fill="#000000" fill-rule="nonzero"></path>
                        <polygon id="Rectangle-Copy-9" fill="#000000" fill-rule="nonzero" transform="translate(117.067103, 117.656757) rotate(-52.000000) translate(-117.067103, -117.656757) " points="112.200956 109.201913 121.959286 109.186913 121.93325 126.111602 112.174921 126.126602"></polygon>
                        <path d="M91.9898153,289.265367 L104.96183,289.180446 C104.872649,290.551404 104.790819,291.591193 104.71634,292.299813 C104.609356,293.317696 103.919255,294.678692 103.850255,295.072107 C103.82177,295.234519 103.850495,295.594436 103.936431,296.151857 L92.2483566,295.925192 C92.3713992,295.30984 92.432341,294.873274 92.4311823,294.615494 C92.4298291,294.314481 91.9931612,293.485604 91.922284,292.24891 C91.8749364,291.42277 91.8974468,290.428256 91.9898153,289.265367 Z" id="Rectangle-Copy-20" fill="#000000" fill-rule="nonzero" transform="translate(98.430023, 292.666152) rotate(-6.000000) translate(-98.430023, -292.666152) "></path>
                        <path d="M86.2170409,232.905632 L104.105811,233.601967 C104.129226,233.883707 104.168729,234.520418 104.22432,235.512101 C104.279911,236.503783 104.301091,237.450546 104.287858,238.35239 L86.198084,237.583218 C86.1406955,237.472519 86.1140328,236.915895 86.1180958,235.913346 C86.1221589,234.910798 86.1551406,233.908226 86.2170409,232.905632 Z" id="Rectangle-Copy-17" fill="#000000" fill-rule="nonzero" transform="translate(95.204684, 235.629011) rotate(-3.000000) translate(-95.204684, -235.629011) "></path>
                        <path d="M39.643816,232.489366 L58.3874107,234.036099 C58.3076558,234.763904 58.1861292,235.782348 58.0228308,237.091433 C57.8595325,238.400517 57.6453934,239.712123 57.3804135,241.026252 L39.0063009,236.709772 C39.0513032,236.422628 39.1628507,235.686409 39.3409437,234.501116 C39.5190366,233.315823 39.6199941,232.645239 39.643816,232.489366 Z" id="Rectangle-Copy-18" fill="#000000" fill-rule="nonzero" transform="translate(48.696856, 236.757809) rotate(-3.000000) translate(-48.696856, -236.757809) "></path>
                        <path d="M38.9424489,288.64199 L51.9823259,289.883975 C51.8988298,290.824497 51.7557778,291.829018 51.5531699,292.897538 C51.2492582,294.500318 50.7202856,295.163624 50.6626487,295.543666 C50.6398,295.694325 50.6563393,296.014904 50.7122665,296.505404 L39.1708377,294.675506 C39.2556817,294.318243 39.2878694,294.070875 39.2674007,293.933402 C39.2279445,293.668406 38.7956849,292.320162 38.7801941,291.286908 C38.769867,290.598072 38.8239519,289.716433 38.9424489,288.64199 Z" id="Rectangle-Copy-19" fill="#000000" fill-rule="nonzero" transform="translate(45.380639, 292.573697) rotate(-3.000000) translate(-45.380639, -292.573697) "></path>
                        <path d="M70.0410163,119.715446 L101.136669,119.715446 C101.894262,127.46074 102.273059,132.919326 102.273059,136.091201 C102.273059,139.263077 102.23648,140.560946 102.163322,139.984809 L70.0410163,136.813031 L70.0410163,119.715446 Z" id="Rectangle-Copy-14" fill="#000000" fill-rule="nonzero"></path>
                        <path d="M42.3547558,141.978438 L101.665678,141.011626 C101.590194,142.911442 101.894605,144.671521 102.578912,146.291865 C102.890056,147.028611 103.001862,148.016232 103.094194,148.605744 C103.606454,151.876357 103.933652,155.44988 104.075787,159.32631 L76.0028354,174.6964 C75.5479579,174.731576 74.9393912,174.754838 74.1771354,174.766186 C73.4148796,174.777535 72.1341983,174.7824 70.3350914,174.780782 L40.2012043,156.537278 C40.5511437,151.515205 40.7354379,148.74774 40.7540871,148.234886 C40.7820608,147.465604 40.9173463,146.930616 41.1378713,146.520783 C41.2199897,146.368171 41.6256179,144.854056 42.3547558,141.978438 Z" id="Rectangle-Copy-16" fill="#000000" fill-rule="nonzero"></path>
                        <path d="M40.2384873,116.936411 L77.2176952,96.7554029 L77.9553463,105.035742 L71.9304348,131.337364 L41.2315251,132.253426 C41.2315251,130.350009 41.2315251,128.803797 41.2315251,127.61479 C41.2315251,125.3574 40.9267297,123.976807 40.8308293,123.316687 C40.6652325,122.176819 40.4677851,120.05006 40.2384873,116.936411 Z" id="Rectangle-Copy-15" fill="#000000" fill-rule="nonzero"></path>
                        <path d="M74.1637077,110.83086 C74.8646776,109.731615 90.2882538,107.880282 90.6949709,110.081233 C90.8124066,110.716737 90.9812961,115.488928 91.056153,116.572758 C91.1790838,118.352637 91.2945882,120.297728 91.402666,122.40803 C81.9242675,123.753855 77.0029836,124.135371 76.6388142,123.552579 C76.3296877,123.057873 75.5870446,118.2271 74.9246435,114.946257 C74.4165229,112.429559 73.8594185,111.30804 74.1637077,110.83086 Z" id="Rectangle-Copy-11" fill="#000000" fill-rule="nonzero" transform="translate(82.739934, 116.434753) rotate(-58.000000) translate(-82.739934, -116.434753) "></path>
                        <path d="M120.252708,117.884222 C119.267108,113.730847 120.372633,113.758622 123.569281,117.967547 C125.810081,120.917938 125.150956,119.728844 129.536524,126.393072 C131.012775,128.636357 131.96122,130.830939 132.381857,132.97682 L120.278834,137.340051 L120.252708,117.884222 Z" id="Rectangle-Copy-10" fill="#000000" fill-rule="nonzero" transform="translate(126.143081, 126.064967) rotate(29.000000) translate(-126.143081, -126.064967) "></path>
                        <path d="M92.0139718,67.9072494 C96.329281,66.6199712 99.5020602,65.9779372 101.532309,65.9811472 C103.562559,65.9843572 106.147943,66.1878979 109.288463,66.5917694 L109.586704,78.3178255 L92.0303845,78.2900672 L92.0139718,67.9072494 Z" id="Rectangle-Copy-8" fill="#000000" fill-rule="nonzero" transform="translate(100.800338, 72.149480) rotate(43.000000) translate(-100.800338, -72.149480) "></path>
                    </g>
                </g>
                <g id="Ninja/Covered" mask="url(#mask-2)">
                    <g transform="translate(582.489332, -0.039579) rotate(-102.000000) translate(-582.489332, 0.039579) translate(514.083535, -157.810464)">
                        <g id="Ninja" fill="none">
                            <g id="Ninja/Hip" transform="translate(40.278261, 142.852063)" fill="#000000" fill-rule="nonzero" stroke="#FFFFFF" stroke-width="1.66956522">
                                <path d="M31.6173913,-0.834782609 C51.3142893,-0.834782609 60.2834781,-0.397337581 61.6803657,0.953504872 C62.1552281,1.41271452 62.2896331,1.56023621 62.5428663,1.97213642 C63.3540014,3.29150017 63.8360111,5.67660936 64.0312205,10.081994 C64.3424197,17.1049713 62.6866702,27.478889 60.8925669,29.697498 C58.92794,32.1269785 49.3721477,33.1826087 31.6173913,33.1826087 C13.8626349,33.1826087 4.3068426,32.1269785 2.34221569,29.697498 C0.548112367,27.478889 -1.10763706,17.1049713 -0.796437933,10.081994 C-0.601228444,5.67660936 -0.119218752,3.29150017 0.691916335,1.97213642 C0.94514954,1.56023621 1.07955454,1.41271452 1.55441693,0.953504872 C2.95130454,-0.397337581 11.9204933,-0.834782609 31.6173913,-0.834782609 Z" id="Path"></path>
                            </g>
                            <g id="Ninja/Body" transform="translate(36.521739, 60.016011)" fill="#000000" fill-rule="nonzero" stroke="#FFFFFF" stroke-width="1.66956522">
                                <path d="M69.4537903,8.09649823 C71.5315091,9.64899961 71.2090361,19.4713782 69.3259181,39.2024968 C69.143042,41.1186533 68.9450092,43.1268582 68.7199693,45.3568274 C68.5928314,46.616664 67.5033397,57.2041452 67.2521577,59.7764194 C66.8048339,64.3573176 66.5888011,67.1321048 66.5888011,68.5264678 L66.5888011,83.1235351 C66.5888011,87.6460509 56.2942691,89.1091701 35.2319414,88.3002224 C14.1057309,89.1091701 3.81119888,87.6460509 3.81119888,83.1235351 L3.81119888,68.5264678 C3.81119888,65.3591899 3.92061679,66.3791191 1.49369763,45.321426 C1.21477432,42.9012871 0.980630149,40.8175047 0.765630489,38.8273917 C-0.287021187,29.083675 -0.834778143,21.9217024 -0.834782609,16.5357304 C-0.834786089,10.3943662 -0.0288430616,4.20244484 1.4265321,3.10377821 C4.55487986,0.742180059 11.0284263,-0.293214549 20.7329302,-0.548378537 C23.8085466,-0.629246815 26.4937192,-0.630493017 31.3215717,-0.585262185 C33.6939961,-0.563035589 34.2424663,-0.558613995 35.1981777,-0.55651975 C35.4542383,-0.557078723 35.6637893,-0.557693174 36.1356832,-0.559188811 C48.9275042,-0.599612957 55.5655795,0.28382112 63.6332069,4.44685533 C65.6339798,5.47928847 67.572945,6.69110357 69.4537903,8.09649823 Z" id="Path"></path>
                                <path d="M42.3639958,37.6954112 C42.5619105,37.9984921 42.7609253,38.2992564 42.9610538,38.5977682 C46.8774931,44.4395321 50.7940495,48.9221228 55.9940326,53.9711825 C56.413094,54.3780812 60.2740359,58.0592042 61.2350053,59.0219613 C62.9617483,60.7519163 64.1237084,62.1017289 64.9707177,63.4294318 C66.0484636,65.1188187 66.5888011,66.7613892 66.5888011,68.5264678 L66.5888011,83.1235351 C66.5888011,87.6460509 56.2942691,89.1091701 35.2319414,88.3002224 C14.1057309,89.1091701 3.81119888,87.6460509 3.81119888,83.1235351 L3.81119888,68.5264678 C3.81119888,65.3591899 3.92061679,66.3791191 1.49369763,45.321426 C1.21477432,42.9012871 0.980630149,40.8175047 0.765630489,38.8273917 C-0.287021187,29.083675 -0.834778143,21.9217024 -0.834782609,16.5357304 C-0.834786089,10.3943662 -0.0288430616,4.20244484 1.4265321,3.10377821 C4.9761996,0.424124655 10.6312503,-1.14195922 15.3353382,-0.714403887 C18.812981,-0.39832036 20.4388788,0.592117335 22.0741536,2.96243058 C22.2712883,3.24817529 23.2175014,4.69956779 23.5176169,5.1332336 C23.8662813,5.6370524 24.2045868,6.14475982 24.5363923,6.66151 C25.4000503,8.00656156 26.2145891,9.40263246 27.1181632,11.0664546 C27.6945145,12.1277357 31.270554,19.0301891 32.6307604,21.5238758 C35.3680746,26.5422345 38.4168529,31.650871 42.3639958,37.6954112 Z" id="Path-Copy-2"></path>
                                <path d="M70.9308904,8.23143859 C72.7425449,10.4098113 72.1868651,20.2686817 69.938043,39.1539883 C69.7390642,40.8249854 69.5257972,42.5744404 69.2861011,44.5076105 C69.2754154,44.5937913 67.7645264,56.6030387 67.427844,59.4329957 C66.8638049,64.173981 66.5888011,67.0794181 66.5888011,68.5264678 L66.5888011,83.1235351 C66.5888011,87.6460509 56.2942691,89.1091701 35.2319414,88.3002224 C14.1057309,89.1091701 3.81119888,87.6460509 3.81119888,83.1235351 L3.81119888,68.5264678 C3.81119888,65.2669766 5.35905128,62.1947563 9.60214765,56.3490439 C10.7587146,54.755642 15.7907827,48.041833 16.5411433,47.0291406 C19.9137611,42.4774297 22.9151016,38.2773554 26.1073091,33.5805252 C31.0127151,26.3629936 34.4972845,20.3820301 38.625298,12.5581605 C43.2525378,3.78810186 43.6655529,3.06268778 45.2572002,1.4415663 C46.2687832,0.41125079 47.31358,-0.141023285 48.4874946,-0.207365764 C57.4847855,-0.715837648 65.4082019,1.59083806 70.9308904,8.23143859 Z" id="Path-Copy"></path>
                            </g>
                            <g id="Ninja/Leg/Lower/Left" transform="translate(82.713043, 220.803092)" fill="#000000" fill-rule="nonzero" stroke="#FFFFFF" stroke-width="1.66956522">
                                <path d="M7.27632361,63.2220063 C7.01834731,59.5327734 6.72828918,55.7609858 6.34749,51.0627602 C4.37696889,26.7508573 4.35259244,26.418745 4.27700397,20.3100008 C4.05680143,2.51415058 5.33528788,0.413860095 14.8173445,0.413540068 C15.9483718,0.413578241 16.9380736,0.324654752 18.2238421,0.141040198 C20.6883106,-0.210898955 20.5570343,-0.195672917 21.2305774,-0.126371994 C22.2801096,-0.0183855168 23.0161965,0.519779907 23.4605748,1.55837358 C24.1674112,3.21038021 24.2768416,6.16193645 24.0741473,14.3957149 C23.9248938,20.4586354 23.7613844,25.9454672 23.5700094,31.4991194 C23.47376,34.2922525 23.375195,36.9767391 23.2459511,40.3697029 C23.2644423,39.8842665 23.0032777,46.6945591 22.9350432,48.5210855 C22.6971313,54.8895939 22.5399657,59.8064767 22.4094009,65.3275532 C22.4128659,65.1810307 22.3680204,67.0928753 22.3562492,67.5781708 C22.0640909,79.623075 21.3922179,80.963246 14.8172122,80.9640646 C15.1588845,80.9641072 11.7200759,81.0448204 11.0724239,80.9516592 C9.89409289,80.7821627 9.15562861,80.1864357 8.71729801,78.9936397 C8.35570387,78.0096608 8.15908497,76.582003 7.95898556,73.8166792 C7.89095097,72.8764583 7.46751474,65.9561669 7.27632361,63.2220063 Z" id="Path" transform="translate(14.212086, 40.433089) scale(-1, 1) rotate(4.000000) translate(-14.212086, -40.433089) "></path>
                            </g>
                            <g id="Ninja/Leg/Upper/Left" transform="translate(70.817391, 148.783879)" fill="#000000" fill-rule="nonzero" stroke="#FFFFFF" stroke-width="1.66956522">
                                <path d="M24.5484566,8.78080309 C27.7182777,10.6412368 35.0590162,13.8866502 34.5104122,13.5998881 C36.3038245,14.5373268 37.1495919,15.5420965 37.2638828,17.1765317 C37.4013172,19.1419356 37.4316782,59.1766504 37.3016232,64.0506363 C37.286012,64.6356857 37.2711124,65.2204318 37.2524345,65.9739259 C37.2546009,65.8865288 37.2176602,67.3845673 37.2076853,67.7811916 C36.7845633,84.6053554 35.5005319,86.2026438 20.6499642,86.6753222 C20.0564237,86.6563624 19.7741093,86.6472813 19.4452869,86.6364909 C4.58501768,86.148849 3.95452505,85.3714902 3.70793805,67.5847559 C3.70380321,67.2865029 3.69906131,66.9393359 3.68997431,66.2734382 C3.53430603,54.9098796 3.50272129,47.7979764 3.62034803,40.6588275 C3.7250247,34.305661 3.91007897,27.9877221 4.17895845,20.8453889 C4.25634387,18.7897749 4.68858437,8.13142017 4.75612183,6.02349694 C4.9002983,1.52358058 6.86851394,-0.291436378 10.2508224,0.527109808 C12.5272691,1.07802845 14.6013506,2.2848018 19.8865173,5.79997998 C20.0100404,5.88213177 20.0100404,5.88213177 20.1335134,5.96421958 C22.2009276,7.33849142 23.3440199,8.07389422 24.5484566,8.78080309 Z" id="Path" transform="translate(20.467586, 43.506302) scale(-1, 1) rotate(4.000000) translate(-20.467586, -43.506302) "></path>
                            </g>
                            <g id="Ninja/Leg/Lower/Right" transform="translate(33.321739, 218.081435)" fill="#000000" fill-rule="nonzero" stroke="#FFFFFF" stroke-width="1.66956522">
                                <path d="M6.27129362,67.6064955 C6.15849957,66.3218457 6.06989104,65.3175165 5.86115463,62.9552775 C5.85790453,62.9184966 5.85790453,62.9184966 5.85465443,62.8817155 C3.86915671,40.4120476 3.20153657,31.3169286 3.20153657,23.6796612 C3.20153657,6.59789489 4.75605141,3.79383237 13.741941,3.79352909 C15.5172109,3.79358901 17.0213035,3.17429934 18.6196008,2.00058819 C19.0260862,1.70208521 20.3712854,0.604581488 20.6536539,0.406403386 C21.5493259,-0.222216976 22.3210129,-0.379622042 22.9763957,0.333959651 C23.7859929,1.21545038 23.9714917,3.51711385 23.9714917,10.2653208 C23.9714917,13.7711496 23.8544325,17.9043345 23.6135342,23.5361465 C23.4719947,26.8451104 22.8435371,39.9624948 22.8275709,40.3065609 C22.7855563,41.2119565 22.7455865,42.0853668 22.7070432,42.9413662 C22.5784722,45.7967709 22.4386015,48.6056517 22.2436851,52.3207084 C21.5200589,66.1128356 21.5168701,66.1766943 21.3464536,71.0258495 C21.2888558,72.6647814 21.2425126,74.2447869 21.2072967,75.7910224 C21.0175904,84.1205229 20.9845309,84.471252 19.7656742,85.0506896 C19.1498246,85.3434609 19.0147367,85.319311 17.28367,84.8520832 C16.0071138,84.5075311 15.0254603,84.3438939 13.7418087,84.3440537 C8.44058598,84.3433936 7.33302618,82.3089618 6.74381884,73.9898417 C6.71367416,73.5642238 6.5790743,71.5890935 6.53916411,71.0251248 C6.45060092,69.7736434 6.36714353,68.6981626 6.27129362,67.6064955 Z" id="Path" transform="translate(13.586514, 42.546001) rotate(4.000000) translate(-13.586514, -42.546001) "></path>
                            </g>
                            <g id="Ninja/Leg/Upper/Right" transform="translate(31.373913, 149.063023)" fill="#000000" fill-rule="nonzero" stroke="#FFFFFF" stroke-width="1.66956522">
                                <path d="M20.4083563,5.35654859 C32.748998,8.61782104 40.145072,12.5225975 40.4986482,17.1050453 C40.9597547,23.0811168 40.7976421,53.4019407 40.0034936,63.1874253 C39.8939812,64.536836 39.7970402,65.8590062 39.6890201,67.4408366 C39.6579684,67.895553 39.4871962,70.453306 39.4397929,71.1340615 C38.4822513,84.885221 36.7225103,86.3609127 20.1637317,86.4855544 C10.9621268,86.1398795 7.48998683,85.4745767 5.53291425,83.2928363 C3.72451459,81.2768361 3.61412456,79.6735101 3.97849691,70.5729347 C4.11685551,67.1172859 4.175329,64.6165892 4.15452471,61.6977912 C4.11288208,55.8554192 4.23631296,47.7748813 4.49577151,37.5050175 C4.57896139,34.2122035 4.67465768,30.7494485 4.78698519,26.9178203 C4.73791897,28.591529 5.35113701,8.44746707 5.40432308,5.83493724 C5.48426333,1.90822768 6.23162328,0.290464567 8.33760468,0.53981452 C9.3986042,0.665437749 15.2711105,3.55432866 15.3035558,3.56842933 C16.9817027,4.2977483 18.6402299,4.88928424 20.4083563,5.35654859 Z" id="Path" transform="translate(22.269101, 43.502432) rotate(4.000000) translate(-22.269101, -43.502432) "></path>
                            </g>
                            <g id="Ninja/Foot/Right" transform="translate(35.130435, 291.915086)" fill="#000000" fill-rule="nonzero" stroke="#FFFFFF" stroke-width="1.66956522">
                                <path d="M-0.559019454,1.9896934 C-0.496685602,-1.58141056 15.6318934,-1.49270647 16.9409728,1.9876288 C17.0521745,2.28327103 17.1505814,2.57829361 17.2372066,2.87534134 C17.8079675,4.83254661 17.8578527,6.06009029 17.7508879,10.9125282 C17.7397338,11.4185316 17.7318001,11.8079076 17.7248857,12.2040334 C17.7097435,13.071528 17.6531108,13.6693044 17.3711671,16.2656369 C17.3257707,16.6836786 17.2922372,16.9988402 17.2607179,17.3066719 C17.1196881,18.6840365 17.0433592,19.7042519 17.028163,20.5748439 C16.9880016,22.8756893 13.7623484,24.3949982 9.82401671,24.698509 C5.74840398,25.0125994 2.54887637,23.8752917 2.59527593,21.2170625 C2.61851986,19.8854184 2.57470647,19.6283305 1.68724922,15.2100793 C1.50739749,14.3146783 1.37122883,13.5873867 1.25053558,12.8557577 C1.12578742,12.0995483 0.990062338,11.3388655 0.838074795,10.5361025 C0.65128401,9.54951681 -0.00843538175,6.2922694 -0.13096076,5.63748846 C-0.43705584,4.00170308 -0.574972497,2.90364262 -0.559019454,1.9896934 Z" id="Rectangle" transform="translate(8.620329, 12.045290) scale(1, -1) rotate(-1.000000) translate(-8.620329, -12.045290) "></path>
                            </g>
                            <g id="Ninja/Foot/Left" transform="translate(91.200000, 291.915086)" fill="#000000" fill-rule="nonzero" stroke="#FFFFFF" stroke-width="1.66956522">
                                <path d="M-0.609741735,1.9896934 C-0.547407883,-1.58141056 15.5811711,-1.49270647 16.8902505,1.9876288 C17.0014522,2.28327103 17.0998591,2.57829361 17.1864843,2.87534134 C17.7572453,4.83254661 17.8071304,6.06009029 17.7001656,10.9125282 C17.6890115,11.4185316 17.6810778,11.8079076 17.6741634,12.2040334 C17.6590212,13.071528 17.6023885,13.6693044 17.3204448,16.2656369 C17.2750484,16.6836786 17.2415149,16.9988402 17.2099957,17.3066719 C17.0689658,18.6840365 16.9926369,19.7042519 16.9774407,20.5748439 C16.9372793,22.8756893 13.7116261,24.3949982 9.77329443,24.698509 C5.6976817,25.0125994 2.49815408,23.8752917 2.54455365,21.2170625 C2.56779758,19.8854184 2.52398419,19.6283305 1.63652694,15.2100793 C1.45667521,14.3146783 1.32050655,13.5873867 1.1998133,12.8557577 C1.07506514,12.0995483 0.939340056,11.3388655 0.787352513,10.5361025 C0.600561729,9.54951681 -0.0591576632,6.2922694 -0.181683041,5.63748846 C-0.487778121,4.00170308 -0.625694778,2.90364262 -0.609741735,1.9896934 Z" id="Rectangle" transform="translate(8.569607, 12.045290) scale(-1, -1) rotate(-1.000000) translate(-8.569607, -12.045290) "></path>
                            </g>
                            <g id="Ninja/Face" transform="translate(43.478261, 0.000000)">
                                <g id="Group" stroke-width="1" fill-rule="evenodd" transform="translate(36.800000, 0.000000)" fill="#000000" stroke="#FFFFFF">
                                    <path d="M10.6398069,11.9056325 C6.91994056,17.2757157 2.46500663,20.6158311 0.23444816,19.0370538 C-1.98504487,17.4661087 -0.406695722,12.1023257 3.30928922,6.73784577 C7.02915556,1.36776254 11.4840895,-1.97235283 13.714648,-0.393575587 C15.934141,1.17736959 14.3557918,6.54115254 10.6398069,11.9056325 Z" id="Oval-Copy" stroke-width="1.66956522" fill-rule="nonzero"></path>
                                    <path d="M11.8460932,17.3333815 C5.61355159,19.1398987 0.0684006487,18.9015446 -0.679362456,16.2655285 C-1.42505003,13.6368291 3.14756699,10.4678248 9.37646023,8.66236514 C15.6090018,6.85584801 21.1541527,7.0942021 21.9019158,9.7302182 C22.6476034,12.3589176 18.0749864,15.5279219 11.8460932,17.3333815 Z" id="Oval-Copy-2" stroke-width="1.66956522" fill-rule="nonzero"></path>
                                </g>
                                <ellipse id="Oval" stroke="#FFFFFF" stroke-width="1.66956522" fill="#000000" fill-rule="nonzero" cx="25.9478261" cy="31.4434783" rx="26.7826087" ry="30.4695652"></ellipse>
                                <path d="M6.19130435,24.3211382 C14.9299343,23.2723955 21.5734125,22.7480241 26.1217391,22.7480241 C30.6700657,22.7480241 37.313544,23.2723955 46.0521739,24.3211382 L46.0521739,41.6598182 C36.8230691,40.621953 29.9837205,40.1030205 25.5341283,40.1030205 C21.0845361,40.1030205 14.6369281,40.621953 6.19130435,41.6598182 L6.19130435,24.3211382 Z" id="Rectangle" fill="#FFFFFF" fill-rule="nonzero"></path>
                                <g id="Group-4" stroke-width="1" fill-rule="evenodd" transform="translate(11.756522, 26.643478)">
                                    <ellipse id="Oval-Copy-4" fill="#000000" fill-rule="nonzero" cx="4.8" cy="5.70434783" rx="4.8" ry="5.70434783"></ellipse>
                                    <ellipse id="Oval-Copy-5" fill="#FFFFFF" fill-rule="nonzero" cx="4.83478261" cy="5.70434783" rx="2.46956522" ry="2.92173913"></ellipse>
                                </g>
                                <g id="Group-4-Copy" stroke-width="1" fill-rule="evenodd" transform="translate(30.886957, 26.643478)">
                                    <ellipse id="Oval-Copy-4" fill="#000000" fill-rule="nonzero" cx="4.8" cy="5.70434783" rx="4.8" ry="5.70434783"></ellipse>
                                    <ellipse id="Oval-Copy-5" fill="#FFFFFF" fill-rule="nonzero" cx="4.83478261" cy="5.70434783" rx="2.46956522" ry="2.92173913"></ellipse>
                                </g>
                            </g>
                            <g id="Ninja/Arm/Upper/Left" transform="translate(87.582609, 61.341946)" fill="#000000" fill-rule="nonzero" stroke="#FFFFFF" stroke-width="1.66956522">
                                <path d="M24.9981655,80.2363627 C20.5064833,80.2191021 18.1059994,78.3308475 15.9971978,72.6770586 C14.037543,67.4231388 12.0271685,57.7459677 11.3520604,50.7554503 C9.9443953,36.1795522 11.9981836,17.543742 16.5363848,9.39181422 C20.7069377,1.90028947 26.9370887,-1.15836665 30.7850691,3.40034269 C35.2666673,8.70970025 36.6819652,13.1816778 36.4185763,24.5495441 C36.3896665,25.7972924 36.3694286,26.4507166 36.261295,29.7747441 C36.2448343,30.2807458 36.2321382,30.675019 36.2200457,31.0573689 C36.0781581,35.5436555 36.0346935,38.1679013 36.1049336,39.8940716 C36.1841925,41.8418798 36.2352449,42.4777066 36.6823297,47.5445632 C37.1260951,52.5738009 37.3151735,55.7621501 37.3130074,59.6008305 C37.3055949,72.7363349 32.9391636,80.2668783 24.9981655,80.2363627 Z" id="Path" transform="translate(24.121171, 40.756594) scale(-1, 1) rotate(19.000000) translate(-24.121171, -40.756594) "></path>
                            </g>
                            <g id="Ninja/Arm/Upper/Right" transform="translate(0.000000, 57.503713)" fill="#000000" fill-rule="nonzero" stroke="#FFFFFF" stroke-width="1.66956522">
                                <path d="M28.4692155,72.9189778 C22.2093738,72.4252695 19.8505072,68.166089 16.926852,54.2994706 C16.0322386,50.0564042 15.6312074,34.9223493 15.7670216,24.6943287 C15.8774241,16.3800403 18.6299112,7.33349861 21.7031836,3.61255533 C25.5802151,-1.08153373 30.8046786,-0.151241531 35.2608954,5.06910561 C39.3486755,9.85783827 42.1135064,17.4453282 42.1135064,24.3802118 C42.1135064,31.725669 42.0941667,34.6280668 41.9909275,38.3470349 C41.8399298,43.7863983 41.5117093,48.8278352 40.9021633,54.6388969 C39.7493424,65.6292303 37.8749002,70.8851562 33.4862907,72.8007232 C32.6036798,73.1859705 31.6047269,73.2193714 29.9596921,73.0634546 C29.8099997,73.0492668 29.6719987,73.0354277 29.4372256,73.0113505 C28.8996055,72.9562147 28.7226705,72.9389676 28.4692155,72.9189778 Z" id="Path" transform="translate(28.931727, 36.863629) rotate(31.000000) translate(-28.931727, -36.863629) "></path>
                            </g>
                            <g id="Ninja/Arm/Lower/Left" transform="translate(69.773913, 104.469731)" fill="#000000" fill-rule="nonzero" stroke="#FFFFFF" stroke-width="1.66956522">
                                <path d="M21.338724,40.4395577 C21.3865054,39.8851554 21.4391869,39.2953223 21.5057776,38.5652401 C21.5427787,38.15957 21.6718535,36.755988 21.6836337,36.6274251 C21.7711458,35.6723696 21.8354411,34.9567389 21.8961115,34.2557358 C22.2647183,29.9967434 22.4185303,27.0638903 22.3422947,24.712443 C22.2413952,21.6002516 22.0807456,18.7231042 21.8258328,15.0723482 C21.7915121,14.5808211 21.75628,14.0852796 21.7103536,13.4458922 C21.7105673,13.4488671 21.6226155,12.2269412 21.5983691,11.8878604 C21.510301,10.6562464 21.45101,9.79104938 21.3993589,8.96509549 C21.2683993,6.87091668 21.2040615,5.25781245 21.2040615,3.80719734 C21.2040615,-2.30671779 22.5383113,-6.32385214 24.9379529,-8.6073254 C26.6570221,-10.2431733 28.5444744,-10.7767996 30.7571048,-10.7870276 C32.4250731,-10.7947378 34.7539605,-9.36135569 36.5825359,-7.0521733 C38.8501373,-4.188575 40.2592419,-0.235569278 40.4310095,4.6152262 C40.5101061,6.84895178 40.3392351,10.9518617 39.9333865,17.8957044 C39.9012518,18.4455104 39.8672336,19.0210002 39.8287135,19.6674159 C39.7897482,20.3213033 39.6589859,22.5012892 39.6490603,22.667252 C39.5798917,23.823796 39.5293279,24.6807156 39.4835271,25.4775132 C39.0515695,32.9922926 38.98576,35.6972536 39.1252466,42.0758339 C39.2812849,49.2113127 38.042771,50.3459532 30.7608851,50.3466367 C30.6634642,50.3466321 30.6634642,50.3466321 30.5667024,50.3466366 C25.9822038,50.3468509 24.557132,50.1723894 23.149441,49.0368514 C21.4417771,47.6593351 20.9368651,45.1022853 21.338724,40.4395577 Z" id="Path" transform="translate(30.826446, 19.779791) rotate(113.000000) translate(-30.826446, -19.779791) "></path>
                            </g>
                            <g id="Ninja/Arm/Lower/Right" transform="translate(6.330435, 85.697281)" fill="#000000" fill-rule="nonzero" stroke="#FFFFFF" stroke-width="1.66956522">
                                <path d="M25.6805558,42.7865913 C25.6290234,41.311139 25.5718858,39.9547668 25.4719438,37.7488163 C25.2090116,31.9452949 25.1413986,30.093464 25.1280119,27.2665122 C25.1117847,23.839718 24.9730766,20.6324361 24.671227,15.6276961 C24.2580762,8.77755582 24.2100626,7.84462632 24.2100626,5.60978046 C24.2100626,-9.79465402 25.3572524,-12.0569938 33.8177076,-12.0572354 C42.7633971,-12.0569799 44.3580597,-9.6230336 44.3580597,4.89791992 C44.3580597,7.45259899 44.3163548,8.12877901 43.726492,16.3785537 C43.4519513,20.2182577 43.2916347,22.9225817 43.1916877,25.7731066 C43.1392165,27.2696041 43.0994085,28.7082563 43.0631477,30.3519295 C43.0467418,31.0955946 43.0316477,31.8484892 43.0116867,32.8994727 C42.9160636,37.9342039 42.8950563,38.9381655 42.814428,41.8658883 C42.5014753,53.2296162 40.7354407,56.3570283 33.8175957,56.3577571 C26.8845775,56.3570267 26.1038905,54.9073031 25.6805558,42.7865913 Z" id="Path" transform="translate(34.284061, 22.150261) rotate(-114.000000) translate(-34.284061, -22.150261) "></path>
                            </g>
                            <g id="Ninja/Hand/Right" transform="translate(58.295652, 93.722678)" fill="#000000" fill-rule="nonzero" stroke="#FFFFFF" stroke-width="1.66956522">
                                <path d="M9.4997107,4.65919401 C13.5260568,2.23992118 24.8767012,2.92029793 26.9235037,5.10340044 C28.0847387,6.34196405 27.7270923,7.69236067 25.6024523,13.1900755 C25.5017842,13.4505642 25.421488,13.6592676 25.3447617,13.8601874 C24.7264921,15.4792244 24.3501648,16.5828379 24.1030862,17.5740537 C23.6302234,19.4710572 23.5087748,20.512 23.3952909,22.6241931 C23.306868,24.2699433 23.1535755,24.935728 22.4910369,25.7393999 C20.0276233,28.7275674 7.80250304,28.3556428 5.31073187,25.6979404 C4.05769765,24.3614645 3.44784389,20.0859498 3.87200239,15.8723622 C4.38634475,10.7628887 6.24615297,6.61412872 9.4997107,4.65919401 Z" id="Rectangle" transform="translate(15.614683, 15.478320) rotate(-59.000000) translate(-15.614683, -15.478320) "></path>
                            </g>
                            <g id="Ninja/Finger" transform="translate(68.173913, 63.156384)" fill="#000000" fill-rule="nonzero" stroke="#FFFFFF" stroke-width="1.66956522">
                                <path d="M-0.653889907,0.201326489 C-0.240913354,-1.03625206 1.08673492,-1.10971659 2.21571605,-0.337532217 C3.20715404,0.340577365 4.01144252,1.57845047 4.35148153,3.08492935 C4.70508784,4.65151562 4.9681025,7.2165123 5.10620067,11.1943351 C5.21083443,14.2082388 5.34032076,17.2977206 5.49466141,20.4627735 L5.53735145,21.3382151 L-0.739052939,21.3382151 L-0.695798808,20.4622615 C-0.572225951,17.9597471 -0.510336334,14.912417 -0.510336334,11.3215834 C-0.510336334,9.61426643 -0.562923732,8.02979518 -0.671486922,5.89022383 C-0.9050046,1.28804021 -0.911867362,0.974414846 -0.653889907,0.201326489 Z" id="Rectangle"></path>
                            </g>
                            <g id="Ninja/Hand/Left" transform="translate(52.243478, 79.276963)" fill="#000000" fill-rule="nonzero" stroke="#FFFFFF" stroke-width="1.66956522">
                                <path d="M6.43537985,3.42399027 C8.19805222,1.46258884 20.8188456,2.26725558 23.8662997,5.63462219 C26.610734,8.66715884 27.0723026,14.4309481 24.8035245,19.9917925 C24.7655196,20.0853081 24.7655196,20.0853081 24.7280535,20.1789277 C24.0313853,21.9263679 22.7661804,26.4041323 22.6657708,26.6125866 C21.9574926,28.0829998 18.8268167,28.4289557 14.2579799,28.1107186 C10.3774377,27.8404239 6.67055983,27.1122627 5.55336763,26.2970683 C5.00614199,25.8977679 4.91562171,25.3562496 5.04682097,24.5688642 C5.08626661,24.3321333 5.39724009,22.9487943 5.49269582,22.4444347 C5.84726942,20.5709734 6.01929418,18.519224 5.94530358,15.8847933 C5.89704597,14.1665839 5.76799658,12.6815835 5.54940756,10.9750296 C4.8800047,5.74891146 4.88010625,5.41131007 6.14081782,3.77686914 C6.23214166,3.65847296 6.33023016,3.54099486 6.43537985,3.42399027 Z" id="Rectangle" transform="translate(15.623819, 15.323940) rotate(51.000000) translate(-15.623819, -15.323940) "></path>
                            </g>
                        </g>
                        <path d="M14.8939682,123.165936 C14.6731724,122.941429 14.474219,122.687191 14.297108,122.403222 C13.8345313,121.661555 13.172691,120.405738 12.8773668,119.854248 C12.4124323,118.986026 12.2353193,118.485529 12.3460278,118.352756 L12.974579,113.0027 L22.4935944,90.5642468 L25.2851609,121.237605 L25.463779,126.401442 C24.1915073,126.470494 23.2992042,126.506067 22.7868699,126.50816 C21.3307177,126.51411 20.3285841,126.416168 19.8774541,126.341893 C19.188235,126.228419 18.7989864,126.119438 18.7097084,126.014951 L14.8939682,123.165936 Z" id="Rectangle" fill="#000000" fill-rule="nonzero" transform="translate(18.888935, 108.536333) rotate(36.000000) translate(-18.888935, -108.536333) "></path>
                        <path d="M44.9374772,62.1593504 C45.9068204,62.1118011 46.7457175,62.1035034 47.4541684,62.1344571 C49.3416299,62.2169244 50.9902399,62.3256235 52.3734303,62.6231317 C53.1361883,62.7871921 53.8144459,62.9910286 54.408203,63.2346412 L56.4737838,72.6356465 C54.4785996,76.5002165 52.8636397,79.3175184 51.6289043,81.0875522 C50.3941688,82.857586 48.6226737,84.8948783 46.314419,87.1994292 C40.5556563,91.1230641 37.1358122,93.05852 36.0548868,93.0057967 C34.9739614,92.9530735 34.3156409,92.9095176 34.0799252,92.8751291 L38.6590331,87.8802318 L49.235663,77.8629079 L44.9374772,62.1593504 Z" id="Rectangle" fill="#000000" fill-rule="nonzero" transform="translate(45.276855, 77.561497) rotate(-29.000000) translate(-45.276855, -77.561497) "></path>
                        <path d="M68.4893658,78.2402902 L72.5832996,77.6209989 C72.6404878,78.5847127 72.6749464,79.2625903 72.6866756,79.6546317 C72.7297884,81.0956501 72.7357815,81.9765471 72.8327522,82.2557799 C72.9692953,82.6489642 72.9490128,82.7958643 72.7719048,82.6964803 L68.3146967,82.5740479 C68.3887024,82.3789145 68.4257053,82.1059588 68.4257053,81.7551808 C68.4257053,80.8883496 68.4484037,80.5757617 68.4257053,79.7408749 C68.4255963,79.7368664 68.4468165,79.2366715 68.4893658,78.2402902 Z" id="Rectangle-Copy-13" fill="#000000" fill-rule="nonzero"></path>
                        <path d="M51.8698137,94.603149 L67.4475253,94.1802246 L65.5203824,104.459312 L49.6937514,105.195766 C49.8698516,104.423606 50.1094708,103.274125 50.4126088,101.747324 C50.7157468,100.220523 51.2014818,97.8391312 51.8698137,94.603149 Z" id="Rectangle-Copy-12" fill="#000000" fill-rule="nonzero" transform="translate(58.570638, 99.687995) rotate(55.000000) translate(-58.570638, -99.687995) "></path>
                        <path d="M98.3601814,62.6594754 C99.9770483,63.2692581 101.55914,64.1485408 103.106455,65.2973236 C104.143252,66.0670785 105.713021,67.4833342 107.365252,69.3128131 C107.907625,69.9133707 108.720708,70.903797 109.804501,72.2840919 L101.793877,114.570306 L101.78751,114.566337 C97.4454618,103.537834 94.6056204,95.8615505 93.2679856,91.5374859 C91.9303507,87.2134213 90.7845166,82.4474279 89.8304833,77.2395058 L90.3753508,66.9507603 L98.3601814,62.6594754 Z" id="Rectangle-Copy-7" fill="#000000" fill-rule="nonzero"></path>
                        <polygon id="Rectangle-Copy-9" fill="#000000" fill-rule="nonzero" transform="translate(117.067103, 117.656757) rotate(-52.000000) translate(-117.067103, -117.656757) " points="112.200956 109.201913 121.959286 109.186913 121.93325 126.111602 112.174921 126.126602"></polygon>
                        <path d="M91.9898153,289.265367 L104.96183,289.180446 C104.872649,290.551404 104.790819,291.591193 104.71634,292.299813 C104.609356,293.317696 103.919255,294.678692 103.850255,295.072107 C103.82177,295.234519 103.850495,295.594436 103.936431,296.151857 L92.2483566,295.925192 C92.3713992,295.30984 92.432341,294.873274 92.4311823,294.615494 C92.4298291,294.314481 91.9931612,293.485604 91.922284,292.24891 C91.8749364,291.42277 91.8974468,290.428256 91.9898153,289.265367 Z" id="Rectangle-Copy-20" fill="#000000" fill-rule="nonzero" transform="translate(98.430023, 292.666152) rotate(-6.000000) translate(-98.430023, -292.666152) "></path>
                        <path d="M86.2170409,232.905632 L104.105811,233.601967 C104.129226,233.883707 104.168729,234.520418 104.22432,235.512101 C104.279911,236.503783 104.301091,237.450546 104.287858,238.35239 L86.198084,237.583218 C86.1406955,237.472519 86.1140328,236.915895 86.1180958,235.913346 C86.1221589,234.910798 86.1551406,233.908226 86.2170409,232.905632 Z" id="Rectangle-Copy-17" fill="#000000" fill-rule="nonzero" transform="translate(95.204684, 235.629011) rotate(-3.000000) translate(-95.204684, -235.629011) "></path>
                        <path d="M39.643816,232.489366 L58.3874107,234.036099 C58.3076558,234.763904 58.1861292,235.782348 58.0228308,237.091433 C57.8595325,238.400517 57.6453934,239.712123 57.3804135,241.026252 L39.0063009,236.709772 C39.0513032,236.422628 39.1628507,235.686409 39.3409437,234.501116 C39.5190366,233.315823 39.6199941,232.645239 39.643816,232.489366 Z" id="Rectangle-Copy-18" fill="#000000" fill-rule="nonzero" transform="translate(48.696856, 236.757809) rotate(-3.000000) translate(-48.696856, -236.757809) "></path>
                        <path d="M38.9424489,288.64199 L51.9823259,289.883975 C51.8988298,290.824497 51.7557778,291.829018 51.5531699,292.897538 C51.2492582,294.500318 50.7202856,295.163624 50.6626487,295.543666 C50.6398,295.694325 50.6563393,296.014904 50.7122665,296.505404 L39.1708377,294.675506 C39.2556817,294.318243 39.2878694,294.070875 39.2674007,293.933402 C39.2279445,293.668406 38.7956849,292.320162 38.7801941,291.286908 C38.769867,290.598072 38.8239519,289.716433 38.9424489,288.64199 Z" id="Rectangle-Copy-19" fill="#000000" fill-rule="nonzero" transform="translate(45.380639, 292.573697) rotate(-3.000000) translate(-45.380639, -292.573697) "></path>
                        <path d="M70.0410163,119.715446 L101.136669,119.715446 C101.894262,127.46074 102.273059,132.919326 102.273059,136.091201 C102.273059,139.263077 102.23648,140.560946 102.163322,139.984809 L70.0410163,136.813031 L70.0410163,119.715446 Z" id="Rectangle-Copy-14" fill="#000000" fill-rule="nonzero"></path>
                        <path d="M42.3547558,141.978438 L101.665678,141.011626 C101.590194,142.911442 101.894605,144.671521 102.578912,146.291865 C102.890056,147.028611 103.001862,148.016232 103.094194,148.605744 C103.606454,151.876357 103.933652,155.44988 104.075787,159.32631 L76.0028354,174.6964 C75.5479579,174.731576 74.9393912,174.754838 74.1771354,174.766186 C73.4148796,174.777535 72.1341983,174.7824 70.3350914,174.780782 L40.2012043,156.537278 C40.5511437,151.515205 40.7354379,148.74774 40.7540871,148.234886 C40.7820608,147.465604 40.9173463,146.930616 41.1378713,146.520783 C41.2199897,146.368171 41.6256179,144.854056 42.3547558,141.978438 Z" id="Rectangle-Copy-16" fill="#000000" fill-rule="nonzero"></path>
                        <path d="M40.2384873,116.936411 L77.2176952,96.7554029 L77.9553463,105.035742 L71.9304348,131.337364 L41.2315251,132.253426 C41.2315251,130.350009 41.2315251,128.803797 41.2315251,127.61479 C41.2315251,125.3574 40.9267297,123.976807 40.8308293,123.316687 C40.6652325,122.176819 40.4677851,120.05006 40.2384873,116.936411 Z" id="Rectangle-Copy-15" fill="#000000" fill-rule="nonzero"></path>
                        <path d="M74.1637077,110.83086 C74.8646776,109.731615 90.2882538,107.880282 90.6949709,110.081233 C90.8124066,110.716737 90.9812961,115.488928 91.056153,116.572758 C91.1790838,118.352637 91.2945882,120.297728 91.402666,122.40803 C81.9242675,123.753855 77.0029836,124.135371 76.6388142,123.552579 C76.3296877,123.057873 75.5870446,118.2271 74.9246435,114.946257 C74.4165229,112.429559 73.8594185,111.30804 74.1637077,110.83086 Z" id="Rectangle-Copy-11" fill="#000000" fill-rule="nonzero" transform="translate(82.739934, 116.434753) rotate(-58.000000) translate(-82.739934, -116.434753) "></path>
                        <path d="M120.252708,117.884222 C119.267108,113.730847 120.372633,113.758622 123.569281,117.967547 C125.810081,120.917938 125.150956,119.728844 129.536524,126.393072 C131.012775,128.636357 131.96122,130.830939 132.381857,132.97682 L120.278834,137.340051 L120.252708,117.884222 Z" id="Rectangle-Copy-10" fill="#000000" fill-rule="nonzero" transform="translate(126.143081, 126.064967) rotate(29.000000) translate(-126.143081, -126.064967) "></path>
                        <path d="M92.0139718,67.9072494 C96.329281,66.6199712 99.5020602,65.9779372 101.532309,65.9811472 C103.562559,65.9843572 106.147943,66.1878979 109.288463,66.5917694 L109.586704,78.3178255 L92.0303845,78.2900672 L92.0139718,67.9072494 Z" id="Rectangle-Copy-8" fill="#000000" fill-rule="nonzero" transform="translate(100.800338, 72.149480) rotate(43.000000) translate(-100.800338, -72.149480) "></path>
                    </g>
                </g>
            </g>
        </g>
    </g>
</svg>